<?xml version="1.0" encoding="UTF-8"?>
<svg width="202px" height="383px" viewBox="0 0 202 383" version="1.1" xmlns="http://www.w3.org/2000/svg" xmlns:xlink="http://www.w3.org/1999/xlink">
    <!-- Generator: Sketch 41.2 (35397) - http://www.bohemiancoding.com/sketch -->
    <title>Thayer150</title>
    <desc>Created with Sketch.</desc>
    <defs>
        <polygon id="path-1" points="0 131.958655 137.940339 131.958655 137.940339 0 0 0"></polygon>
    </defs>
    <g id="Page-1" stroke="none" stroke-width="1" fill="none" fill-rule="evenodd">
        <g id="Thayer150">
            <g>
                <polygon id="Rectangle" fill="#FFFFFF" points="0 0 201.166667 0 201.091267 338.104249 100.592629 382.26601 0.135306491 338.104249"></polygon>
                <rect id="Rectangle-Copy" fill="#80B63A" x="9.86111111" y="0" width="180.264099" height="105.501448"></rect>
                <polygon id="Rectangle-Copy-4" fill="#036936" points="9.86111111 157.635468 190.12521 157.635468 190.12521 328.447336 99.8583409 369.487014 9.86111111 328.447336"></polygon>
                <g id="thayer150" transform="translate(8.755471, 15.682648)">
                    <path d="M180.089229,89.9656467 L0.954973906,89.9656467 C0.954973906,40.2787419 41.0530905,0 90.520682,0 C139.988274,0 180.089229,40.2787419 180.089229,89.9656467" id="Fill-1" fill="#FEFEFE"></path>
                    <path d="M180.089229,89.9627953 C180.089229,75.1754843 176.536465,61.2193536 170.241415,48.9127523 C171.208028,53.058674 171.70198,57.4925862 171.70198,62.0719194 C171.70198,72.7760392 169.015052,82.7003038 163.854105,89.9627953 L180.089229,89.9627953 Z" id="Fill-3" fill="#036936"></path>
                    <path d="M141.017908,24.0785669 C134.426203,24.0785669 129.084992,32.4687834 129.084992,62.0719194 C129.084992,75.1341391 130.125414,84.0575656 131.854246,89.9627953 L150.182989,89.9627953 C151.908982,84.0575656 152.950824,75.1341391 152.950824,62.0719194 C152.950824,32.4687834 147.611032,24.0785669 141.017908,24.0785669" id="Fill-5" fill="#036936"></path>
                    <path d="M28.6225324,32.6097847 L19.0529217,35.7320572 C7.69486406,50.8130615 0.954122264,69.5965963 0.954122264,89.9626528 L28.6225324,89.9626528 L28.6225324,32.6097847 Z" id="Fill-7" fill="#036936"></path>
                    <path d="M44.8768185,25.5383363 L45.6702644,25.5383363 L45.6702644,89.9626528 L53.0681895,89.9626528 C52.9674119,89.2997045 52.9106358,88.6239249 52.9106358,87.9353141 C52.9106358,83.2604594 55.9779643,79.1843967 61.092071,79.1843967 C66.2075971,79.1843967 69.2749256,83.7409187 69.2749256,87.9353141 C69.2749256,88.6110937 69.1869227,89.292576 69.0322078,89.9626528 L85.5384378,89.9626528 C86.3914986,87.131222 86.8911283,83.6653569 86.8911283,79.4253392 C86.8911283,61.2078055 78.0283799,56.5329508 70.2997341,56.5329508 C62.3439839,56.5329508 57.2298772,59.6495206 57.2298772,59.6495206 L57.2298772,24.7727379 L98.1427307,24.7727379 L99.847433,15.5442126 L100.870822,15.5442126 L99.3918048,38.6761179 L59.1616838,38.7958763 L59.1616838,56.892226 C61.6612514,55.9341588 66.4347015,54.6153907 73.7077192,54.6153907 C92.9150719,54.6153907 105.642853,62.5265736 105.642853,79.4253392 C105.642853,83.5099561 104.911861,87.0014837 103.550654,89.9626528 L118.183273,89.9626528 C113.019487,82.7001612 110.332558,72.7758966 110.332558,62.0717768 C110.332558,40.6179148 121.129952,22.2820483 141.018618,22.2820483 C144.977331,22.2820483 148.569838,23.0177071 151.791882,24.3493064 C135.769668,9.25119384 114.22314,-0.000142569524 90.5205401,-0.000142569524 C62.3638555,-0.000142569524 37.2489502,13.0520974 20.8278844,33.4566476 L44.8768185,25.5383363 Z" id="Fill-9" fill="#036936"></path>
                    <path d="M30.9114606,98.7904151 C30.761004,98.7904151 30.5452548,98.8360374 30.150661,98.9187277 C30.0030431,98.9486673 29.8312955,98.9857354 29.6070299,99.0285062 C28.937072,99.118325 27.9264575,99.2537661 26.4942805,99.2537661 L8.27341246,99.2537661 C6.82988026,99.2537661 5.07407955,99.165373 3.68732344,99.0228034 C3.00884912,98.968627 2.5787702,98.7790096 2.26508228,98.6407171 C2.04649432,98.5451955 1.87332723,98.468208 1.69448253,98.468208 C1.24453199,98.468208 1.08981713,98.968627 0.969167929,99.4804516 C0.896778409,99.782699 -0.000283880473,104.062636 -0.000283880473,104.838214 C-0.000283880473,105.136185 -0.000283880473,105.753511 0.591606902,105.753511 C1.03729924,105.753511 1.18775589,105.387107 1.27008123,105.066326 C1.32969613,104.818255 1.50996023,104.285045 2.02662269,103.505189 C2.63412689,102.609853 3.56241604,102.338971 6.34728346,102.243449 L13.0184745,102.062386 L13.0184745,120.828812 C13.0184745,125.063127 13.0184745,128.721461 12.7899508,130.653278 C12.6565269,131.967769 12.4010345,132.877363 11.594814,133.039892 C11.2371246,133.118305 10.6807189,133.220955 9.97527588,133.220955 C9.74959091,133.220955 9.06260017,133.220955 9.06260017,133.766996 C9.06260017,134.193279 9.43306418,134.408559 10.1597982,134.408559 C11.2087365,134.408559 12.5841374,134.364363 13.7977264,134.324443 C14.713241,134.295929 15.5052675,134.270267 15.9580568,134.270267 C16.4633641,134.270267 17.2397771,134.291652 18.1368394,134.317315 C19.5633388,134.35866 21.3375918,134.408559 23.179976,134.408559 C24.1309756,134.408559 24.2331726,133.959465 24.2331726,133.766996 C24.2331726,133.563122 24.1153622,133.220955 23.3190774,133.220955 C22.6306673,133.220955 21.631408,133.125434 20.9955158,133.03704 C19.8060566,132.877363 19.5008851,132.091805 19.3532673,130.696049 C19.1247435,128.721461 19.1247435,125.063127 19.1247435,120.828812 L19.1247435,102.062386 L24.7413186,102.196401 C29.1613375,102.297625 29.932073,103.758963 29.9973655,104.622934 L30.0427864,105.126205 C30.0839491,105.744956 30.1605968,106.218287 30.7269383,106.218287 C31.2294068,106.218287 31.2890217,105.610941 31.3188291,105.301565 C31.3188291,104.671408 31.3557336,103.500912 31.392638,102.367484 C31.4252843,101.356667 31.4565112,100.401451 31.4565112,99.9395255 C31.4565112,99.3749502 31.4565112,98.7904151 30.9114606,98.7904151" id="Fill-11" fill="#0F223D"></path>
                    <path d="M99.1482354,133.221953 C98.7238341,133.221953 98.2923358,133.182034 97.6649599,133.085086 C96.892805,132.93824 95.8183174,132.339448 94.3393002,128.983361 C93.1470022,126.224641 91.0590613,121.337358 89.0619622,116.668206 C86.7440782,111.243435 84.5539403,106.119487 84.0330197,104.947565 C83.621393,104.076465 83.395708,103.596006 82.6774904,103.596006 C82.1239235,103.596006 81.7591371,104.213332 81.317703,105.275475 L70.734639,129.817393 C69.8517707,131.937402 69.1761352,132.925409 67.5395643,133.17348 C67.3522032,133.17348 67.1407122,133.184885 66.9306407,133.197716 C66.882381,133.200568 66.8397989,133.200568 66.7929586,133.203419 C66.3217171,133.183459 65.8178292,133.144966 65.4459458,133.083661 C64.3757164,132.923983 64.1301598,132.37509 63.9868002,131.207446 C63.8022779,129.505166 63.8022779,126.405704 63.8022779,122.815804 L63.8022779,115.885499 C63.8022779,109.897579 63.8022779,108.819753 63.8959584,107.576547 C63.9853808,106.216434 64.2820359,105.77732 65.2230996,105.614791 C65.7355039,105.520695 66.0832575,105.479349 66.3855902,105.479349 C67.2102629,105.479349 67.2996853,105.063046 67.2996853,104.884835 C67.2996853,104.335942 66.5885647,104.335942 66.2479081,104.335942 C65.3707175,104.335942 64.1486121,104.364456 63.0712857,104.391544 C62.2281607,104.411504 61.4730386,104.428612 61.0486373,104.428612 C60.6143002,104.428612 59.8747916,104.412929 59.0061173,104.394395 C57.7783343,104.367307 56.2496379,104.335942 54.9750146,104.335942 C54.6343581,104.335942 53.9246569,104.335942 53.9246569,104.884835 C53.9246569,105.107243 54.0382091,105.479349 54.7919117,105.479349 C55.304316,105.479349 55.9969843,105.520695 56.3092528,105.610513 C57.5384553,105.96266 57.840788,106.33049 57.9273715,107.57227 C57.9798894,108.972303 58.0182133,110.497797 58.0182133,116.20628 L58.0182133,117.037461 C58.0182133,117.137259 57.9912446,117.137259 57.9671148,117.137259 L42.6900872,117.137259 C42.6063425,117.137259 42.5935679,117.130131 42.5935679,117.037461 L42.5935679,116.20628 C42.5935679,110.23832 42.5935679,108.819753 42.6829902,107.576547 C42.773832,106.216434 43.0804229,105.77732 44.0598105,105.613365 C44.5125999,105.52212 44.8674504,105.479349 45.1768802,105.479349 C45.9305828,105.479349 46.0895559,105.155717 46.0895559,104.884835 C46.0895559,104.335942 45.3855323,104.335942 45.0860384,104.335942 C44.1747821,104.335942 42.8930618,104.365881 41.7617981,104.391544 C40.8931238,104.411504 40.120969,104.428612 39.6994065,104.428612 C39.2409395,104.428612 38.5127861,104.412929 37.6611447,104.394395 C36.4872989,104.367307 35.0295727,104.335942 33.7648852,104.335942 C33.4767465,104.335942 32.7116887,104.335942 32.7116887,104.884835 C32.7116887,105.256941 33.0367318,105.479349 33.5832017,105.479349 C34.2460626,105.479349 34.8734384,105.5321 35.1459637,105.610513 C36.3751661,105.964086 36.6774988,106.33049 36.762663,107.57227 C36.8095033,108.816902 36.8095033,109.894728 36.8095033,115.885499 L36.8095033,122.815804 C36.8095033,126.405704 36.8095033,129.505166 36.6264004,131.160398 C36.4929765,132.285271 36.2843244,132.926834 35.5618486,133.087938 C35.199901,133.177757 34.7471116,133.221953 34.1807701,133.221953 C33.39726,133.221953 33.3575167,133.713818 33.3575167,133.812191 C33.3575167,134.036025 33.4824241,134.408132 34.3184521,134.408132 C35.2382249,134.408132 36.4872989,134.363935 37.5887552,134.325441 C38.4120085,134.295502 39.1231291,134.269839 39.5148842,134.269839 C39.9719317,134.269839 40.7086015,134.29265 41.560243,134.318313 C42.8774483,134.358232 44.5154387,134.408132 46.0966529,134.408132 C47.0050704,134.408132 47.1015898,133.991829 47.1015898,133.812191 C47.1015898,133.528478 46.8446779,133.221953 46.2783364,133.221953 C45.6892844,133.221953 44.7737699,133.17348 44.2358164,133.083661 C43.2053303,132.925409 42.9668707,132.37509 42.823511,131.207446 C42.6191171,129.316974 42.5935679,125.779824 42.5935679,122.907048 L42.5978261,119.870317 C42.6020843,119.86604 42.6262141,119.851783 42.6900872,119.851783 L57.9628566,119.851783 C57.9813088,119.854635 58.0182133,119.880297 58.0182133,119.903108 L58.0182133,122.907048 C58.0182133,126.448475 58.0182133,129.505166 57.8351104,131.160398 C57.7016866,132.285271 57.4944538,132.926834 56.7733974,133.087938 C56.4057722,133.179182 55.9515634,133.221953 55.3440592,133.221953 C54.7791371,133.221953 54.5208059,133.528478 54.5208059,133.812191 C54.5208059,134.036025 54.6570685,134.408132 55.5740024,134.408132 C56.4611289,134.408132 57.7499462,134.365361 58.8883069,134.325441 C59.75982,134.295502 60.514942,134.269839 60.9123747,134.269839 C61.343873,134.269839 62.0365414,134.29265 62.8385037,134.316887 C63.8860226,134.349678 65.1450325,134.388172 66.4395275,134.402429 C66.5034006,134.40528 66.5701125,134.408132 66.6197916,134.408132 C66.7163109,134.408132 66.8099915,134.406706 66.9050914,134.40528 C67.0399347,134.406706 67.1733585,134.408132 67.3082017,134.408132 C67.3337509,134.408132 67.3436868,134.401003 67.3678166,134.401003 C68.5842444,134.383895 69.7509932,134.333995 70.4990182,134.301204 C70.8978703,134.28267 71.1860089,134.269839 71.3123358,134.269839 C71.9468086,134.269839 72.7473515,134.305482 73.5209258,134.338273 C74.3186299,134.372489 75.1433027,134.408132 75.8203576,134.408132 C76.0460426,134.408132 76.6421916,134.408132 76.6421916,133.812191 C76.6421916,133.414422 76.3881186,133.221953 75.8671979,133.221953 L75.2696295,133.221953 C73.9467465,133.221953 73.8346137,132.740068 73.8346137,132.289548 C73.8346137,131.903185 73.990748,130.962226 74.4194075,129.95426 L76.5825767,124.637842 C76.6492886,124.473887 76.6492886,124.473887 76.7869706,124.473887 L86.3097411,124.473887 C86.4516813,124.473887 86.5056186,124.496698 86.5609753,124.636416 L89.6893381,132.586093 C89.75605,132.751474 89.7517918,132.915429 89.6794023,133.046593 C89.625465,133.142114 89.5403008,133.209122 89.4679113,133.221953 C89.1584816,133.25617 88.803631,133.353117 88.803631,133.812191 C88.803631,134.234197 89.2947442,134.264136 89.9746379,134.305482 L90.1719349,134.316887 C93.5770811,134.408132 96.5308574,134.408132 97.9502598,134.408132 C99.3497905,134.408132 99.8778082,134.356807 99.8778082,133.812191 C99.8778082,133.635405 99.8068381,133.221953 99.1482354,133.221953 L99.1482354,133.221953 Z M77.617321,121.97892 C77.617321,121.97892 77.617321,121.961812 77.6428703,121.911913 L81.5547432,112.104555 L81.578873,112.030419 C81.5831312,112.016162 81.5902282,111.997628 81.5959058,111.976243 C81.600164,111.987648 81.6030028,111.997628 81.6058416,112.006182 L85.4481638,121.946129 L85.4368086,121.946129 L77.617321,121.97892 Z" id="Fill-14" fill="#0F223D"></path>
                    <path d="M146.820141,127.859201 C146.382965,127.859201 146.269413,128.209922 146.182829,128.607691 C145.908885,130.210172 145.463192,130.964365 144.539161,131.386371 C143.406478,131.881087 141.437767,131.881087 140.79052,131.881087 C136.618896,131.881087 135.579894,131.270889 135.49473,128.77022 C135.462083,127.958999 135.476277,126.069953 135.487633,124.551588 C135.491891,123.918579 135.49473,123.351152 135.49473,122.956235 L135.49473,119.811151 C135.49473,119.610128 135.534473,119.57306 135.547247,119.57306 C136.570637,119.57306 141.14537,119.66573 141.877782,119.756974 C143.406478,119.898118 143.791136,120.512593 143.974239,121.138473 C144.031015,121.4507 144.052306,121.761502 144.072178,122.062324 C144.083533,122.237684 144.094888,122.404491 144.111921,122.538506 C144.111921,122.852159 144.314896,123.040351 144.655552,123.040351 C144.925239,123.040351 145.248863,122.857862 145.248863,121.98391 C145.248863,121.700197 145.338285,120.144764 145.430546,119.36776 C145.512871,118.653486 145.576745,118.113148 145.626424,117.701122 C145.715846,116.952632 145.75275,116.64183 145.75275,116.483578 C145.75275,116.151391 145.534162,115.890489 145.253121,115.890489 C145.058663,115.890489 144.9224,116.02593 144.752072,116.198439 C144.679682,116.269724 144.597357,116.35384 144.490902,116.445084 C144.13889,116.757312 143.659132,116.902733 142.658453,116.99968 C142.080757,117.058133 139.504541,117.090924 135.591249,117.090924 C135.542989,117.090924 135.49473,117.090924 135.49473,116.855685 L135.49473,107.148126 C135.49473,106.957083 135.557183,106.957083 135.591249,106.957083 C136.425858,106.957083 141.237632,107.051178 141.924622,107.142423 C143.916044,107.323486 144.16302,107.855271 144.451158,108.478299 C144.655552,108.884623 144.70949,109.519057 144.70949,109.829858 C144.70949,110.052267 144.70949,110.515618 145.2077,110.515618 C145.650553,110.515618 145.77688,109.992388 145.840753,109.727208 C145.903207,109.414981 145.962822,108.585227 146.011082,107.919427 C146.035211,107.570132 146.056503,107.267884 146.074955,107.112483 C146.138828,105.883534 146.263735,105.296148 146.338964,104.944001 C146.375868,104.777195 146.398578,104.66599 146.398578,104.561915 C146.398578,104.067198 146.080632,104.013022 145.94437,104.013022 C145.808107,104.013022 145.669006,104.065773 145.535582,104.115672 C145.44616,104.148463 145.356737,104.184105 145.272992,104.199788 C145.193506,104.212619 145.091309,104.229728 144.973499,104.249687 C144.618648,104.310992 144.130374,104.395108 143.586742,104.429325 C142.990593,104.464967 137.471957,104.445008 134.502567,104.435028 C133.571439,104.432176 132.854641,104.429325 132.555147,104.429325 C132.066873,104.429325 130.902963,104.412217 129.564467,104.393683 C127.705049,104.365169 125.600076,104.335229 124.37939,104.335229 L124.366615,104.335229 L124.362357,104.335229 C123.980538,104.335229 123.153026,104.35804 122.302804,104.380851 C121.408581,104.403662 120.48313,104.429325 120.037438,104.429325 C119.459741,104.429325 118.833785,104.40794 118.172343,104.383703 C117.482514,104.360892 116.769974,104.335229 116.080144,104.335229 C115.843104,104.335229 115.21147,104.335229 115.21147,104.884122 C115.21147,105.314682 115.628774,105.411629 115.963753,105.490042 L116.092919,105.521407 C116.747263,105.652571 116.823911,105.986184 116.823911,106.224275 C116.823911,106.733248 116.628033,107.406177 116.243375,108.224526 C115.862976,108.990124 113.671418,112.773919 112.073171,115.538342 C111.306694,116.859962 110.673641,117.95347 110.369888,118.488106 C109.827677,117.584215 108.413952,115.14485 107.04139,112.776771 C105.563792,110.230479 104.1671,107.823905 103.81225,107.243647 C103.411978,106.556462 103.328233,106.184356 103.328233,105.993313 C103.328233,105.917751 103.328233,105.685362 103.752635,105.564178 C103.867606,105.531387 103.971223,105.504299 104.062064,105.480062 C104.492143,105.368858 104.800154,105.287593 104.800154,104.884122 C104.800154,104.633199 104.66673,104.335229 104.026579,104.335229 C102.935059,104.335229 101.820828,104.36802 100.923766,104.395108 C100.304906,104.413642 99.7797275,104.429325 99.4248769,104.429325 C98.6498832,104.429325 97.2759017,104.396534 96.1687679,104.370871 C95.3540309,104.352337 94.6542656,104.335229 94.3647075,104.335229 C94.1006987,104.335229 93.4037721,104.335229 93.4037721,104.884122 C93.4037721,105.240546 93.7160406,105.480062 94.1801852,105.480062 C94.6173611,105.480062 95.2674474,105.673957 95.7997233,105.966224 C96.5122633,106.344034 97.301451,107.183768 98.3603251,108.6836 C99.7839857,110.760837 105.3083,119.416233 105.56947,119.980809 C106.145747,121.186947 106.47221,121.969653 106.47221,124.016952 L106.47221,127.25328 C106.47221,127.86918 106.47221,129.507304 106.333108,131.166813 C106.238008,132.36012 105.908707,132.934676 105.225974,133.087225 C104.878221,133.174192 104.385688,133.22124 103.842057,133.22124 C103.277135,133.22124 103.021642,133.527765 103.021642,133.812904 C103.021642,134.408844 103.758312,134.408844 104.07342,134.408844 C104.910867,134.408844 106.120198,134.366074 107.189008,134.329005 C108.052004,134.299066 108.865322,134.270552 109.316692,134.270552 C109.753868,134.270552 110.46215,134.291937 111.281145,134.3176 C112.554349,134.358945 114.139821,134.408844 115.665679,134.408844 C116.581193,134.408844 116.718875,134.035312 116.718875,133.812904 C116.718875,133.526339 116.415123,133.22124 115.85162,133.22124 C115.30515,133.22124 114.442154,133.174192 113.850263,133.084374 C112.868037,132.931824 112.446474,132.394337 112.348535,131.171091 C112.254855,129.510156 112.254855,127.870606 112.254855,127.25328 L112.252016,123.650548 C112.2435,122.534229 112.234983,121.477789 112.747387,120.253116 C113.464186,118.630675 119.212765,109.343696 120.586747,107.722681 C121.48097,106.642004 121.817368,106.316945 122.642041,105.923454 C123.187092,105.672531 123.898212,105.482914 124.305581,105.480062 C125.284968,105.485765 127.785955,105.535664 128.042867,105.611226 C129.273489,105.961947 129.575822,106.329777 129.663825,107.571557 C129.709246,108.816189 129.709246,109.89544 129.709246,115.884786 L129.709246,122.816516 C129.709246,126.404991 129.709246,129.505879 129.526143,131.159685 C129.394138,132.285984 129.185486,132.926121 128.46301,133.087225 C128.101063,133.177044 127.646854,133.22124 127.079093,133.22124 C126.298422,133.22124 126.258678,133.713105 126.258678,133.812904 C126.258678,134.035312 126.383586,134.408844 127.216775,134.408844 C128.025834,134.408844 128.971156,134.366074 130.027192,134.316174 C130.60063,134.316174 131.141423,134.300492 131.584276,134.286235 C131.885189,134.27768 132.137843,134.270552 132.323785,134.270552 C133.235041,134.270552 134.312367,134.296215 135.677832,134.330431 L137.007813,134.363222 C138.999234,134.454467 141.442025,134.500089 144.472449,134.500089 C145.982694,134.500089 146.493678,134.500089 146.803108,133.355256 C147.038729,132.554015 147.363772,129.865154 147.363772,128.962689 C147.363772,128.660441 147.363772,127.859201 146.820141,127.859201" id="Fill-16" fill="#0F223D"></path>
                    <path d="M161.262276,107.242934 C161.262276,106.977755 161.317633,106.919302 161.4908,106.860848 C161.855586,106.779584 162.758326,106.728259 163.84275,106.728259 C166.606326,106.728259 169.831208,108.508952 169.831208,113.525973 C169.831208,116.728085 168.447291,118.380466 167.283381,119.204518 C166.617681,119.696382 166.079728,119.816141 164.533999,119.816141 C163.827136,119.816141 162.494317,119.769093 161.530543,119.468271 C161.331827,119.367047 161.262276,119.300039 161.262276,118.933635 L161.262276,107.242934 Z M183.674639,133.221953 C183.353854,133.221953 183.142363,133.221953 182.74777,133.130709 L182.629959,133.106472 C181.969937,132.971031 180.597375,132.69302 178.508015,130.59012 C176.200066,128.273365 173.544365,124.988563 170.181801,120.82981 L169.753141,120.300877 C173.635206,117.142962 175.293068,114.529663 175.293068,111.584176 C175.293068,108.78126 173.450684,106.773881 172.360583,106.029668 C170.095217,104.528411 167.012275,104.334516 164.579419,104.334516 C163.973335,104.334516 162.788134,104.357327 161.573125,104.380138 C160.299921,104.404375 158.984135,104.428612 158.277273,104.428612 C157.960746,104.428612 157.384469,104.415781 156.676187,104.398672 C155.509438,104.370159 154.060229,104.334516 152.755798,104.334516 C152.426496,104.334516 151.6586,104.334516 151.6586,104.884835 C151.6586,105.024553 151.721053,105.479349 152.525855,105.479349 C153.188715,105.479349 153.816091,105.5321 154.087197,105.610513 C155.319238,105.964086 155.621571,106.331915 155.708155,107.570844 C155.752156,108.816902 155.752156,109.894728 155.752156,115.885499 L155.752156,122.815804 C155.752156,126.405704 155.752156,129.505166 155.569053,131.160398 C155.435629,132.285271 155.226977,132.926834 154.505921,133.086512 C154.142554,133.177757 153.689765,133.221953 153.123423,133.221953 C152.341332,133.221953 152.301589,133.713818 152.301589,133.812191 C152.301589,134.034599 152.425077,134.408132 153.261105,134.408132 C154.214943,134.408132 155.515116,134.359658 156.559796,134.321164 C157.28653,134.294076 157.913906,134.269839 158.229013,134.269839 C158.430568,134.269839 158.940134,134.285522 159.618608,134.305482 C160.952846,134.346827 162.971237,134.408132 164.533999,134.408132 C165.440997,134.408132 165.540355,133.991829 165.540355,133.812191 C165.540355,133.528478 165.279185,133.221953 164.856203,133.221953 C164.345218,133.221953 163.48648,133.17348 162.903105,133.083661 C161.818682,132.922557 161.63274,132.345151 161.487961,131.161824 C161.330407,129.717594 161.262276,127.222628 161.262276,122.815804 L161.262276,122.261208 C161.262276,122.15143 161.296342,122.115787 161.401378,122.115787 L165.040725,122.208457 C165.286282,122.208457 165.463707,122.2441 165.641132,122.425163 C165.862559,122.687491 166.329543,123.363271 166.921433,124.220113 C167.653845,125.280831 168.565101,126.60245 169.453647,127.774372 C171.863792,131.034937 173.314422,132.738642 175.033318,133.602614 C176.170259,134.197129 177.348363,134.408132 179.532823,134.408132 L183.399275,134.408132 C183.685995,134.408132 184.357372,134.408132 184.357372,133.812191 C184.357372,133.528478 184.097621,133.221953 183.674639,133.221953 L183.674639,133.221953 Z" id="Fill-19" fill="#0F223D"></path>
                </g>
                <g id="words" transform="translate(29.583333, 185.221675)">
                    <path d="M14.2693559,119.340471 L11.7689171,119.340471 L11.7689171,117.566472 C14.1564361,117.095119 14.5619265,116.286975 15.3277393,115.299244 L17.1068952,115.299244 L17.1068952,131.733789 L14.2693559,131.733789 L14.2693559,119.340471 Z" id="Fill-1" fill="#FEFEFE"></path>
                    <path d="M27.7596931,117.858327 C26.5436048,117.858327 25.6877114,118.801798 25.6877114,119.946731 C25.6877114,121.091665 26.6109739,121.989476 27.7596931,121.989476 C28.9086675,121.989476 29.8321851,121.091665 29.8321851,119.946731 C29.8321851,118.801798 28.9762917,117.858327 27.7596931,117.858327 M27.7596931,124.549106 C26.2510342,124.549106 25.2822211,125.537346 25.2822211,127.041328 C25.2822211,128.433258 25.9356245,129.398986 27.7596931,129.398986 C29.5846548,129.398986 30.2376755,128.433258 30.2376755,127.041328 C30.2376755,125.537346 29.2691175,124.549106 27.7596931,124.549106 M27.7596931,131.958617 C24.6742407,131.958617 22.3095609,130.341693 22.3095609,127.131122 C22.3095609,125.31248 22.9401252,123.898165 24.6742407,123.224585 C23.3904006,122.573644 22.7144133,121.11405 22.7144133,119.699608 C22.7144133,116.691136 24.9447378,115.299205 27.7596931,115.299205 C30.5755416,115.299205 32.8052281,116.691136 32.8052281,119.699608 C32.8052281,121.11405 32.1298787,122.573644 30.845911,123.224585 C32.5802818,123.898165 33.210846,125.31248 33.210846,127.131122 C33.210846,130.341693 30.845911,131.958617 27.7596931,131.958617" id="Fill-3" fill="#FEFEFE"></path>
                    <path d="M40.056207,126.0087 C40.056207,128.635358 40.8673153,129.398986 42.5339342,129.398986 C44.0882713,129.398986 44.8766681,128.27631 44.8766681,126.412899 C44.8766681,124.616388 43.9078549,123.786114 42.5339342,123.786114 C41.5880878,123.786114 40.822275,124.41467 40.056207,125.110635 L40.056207,126.0087 Z M44.5838423,119.767017 C44.5386744,118.666598 43.6377407,117.858327 42.5339342,117.858327 C40.8673153,117.858327 40.056207,118.62221 40.056207,121.248995 L40.056207,122.753104 C41.0696777,121.989476 42.2640751,121.495992 43.5474049,121.495992 C46.3854545,121.495992 47.8493283,123.695938 47.8493283,126.300339 C47.8493283,129.623343 46.2280049,131.958617 42.5339342,131.958617 C39.02028,131.958617 37.0832916,129.803312 37.0832916,126.345108 L37.0832916,120.912332 C37.0832916,117.454637 39.02028,115.299205 42.5339342,115.299205 C45.3495275,115.299205 47.3315561,116.848084 47.5567577,119.767017 L44.5838423,119.767017 Z" id="Fill-5" fill="#FEFEFE"></path>
                    <polygon id="Fill-7" fill="#FEFEFE" points="51.1595356 115.523384 61.4302565 115.523384 61.4302565 117.005617 57.0377421 131.733827 53.7947125 131.733827 58.2995086 118.083015 51.1595356 118.083015"></polygon>
                    <mask id="mask-2" fill="white">
                        <use xlink:href="#path-1"></use>
                    </mask>
                    <g id="Clip-10"></g>
                    <polygon id="Fill-9" fill="#FEFEFE" mask="url(#mask-2)" points="63.6487148 125.744826 73.9837426 125.744826 73.9837426 123.638488 63.6487148 123.638488"></polygon>
                    <path d="M76.1125541,131.73384 L76.1125541,129.107182 C82.5992513,122.955165 83.6354336,121.787847 83.6354336,120.081384 C83.6354336,118.779247 82.9146611,117.858289 81.4731161,117.858289 C79.9640745,117.858289 79.1532213,118.779247 79.1532213,119.991336 L79.1532213,120.575249 L76.1804336,120.575249 L76.1804336,119.811875 C76.1804336,117.431705 78.094838,115.299167 81.2481697,115.299167 C84.4240855,115.299167 86.6087317,116.915455 86.6087317,120.013721 C86.6087317,123.763691 82.2168553,126.65973 79.8738662,129.174209 L86.3608186,129.174209 L86.3608186,131.73384 L76.1125541,131.73384 Z" id="Fill-11" fill="#FEFEFE" mask="url(#mask-2)"></path>
                    <path d="M93.2063965,126.0087 C93.2063965,128.635358 94.017122,129.398986 95.6838685,129.398986 C97.3507426,129.398986 98.1618509,128.635358 98.1618509,126.0087 L98.1618509,121.248995 C98.1618509,118.62221 97.3507426,117.858327 95.6838685,117.858327 C94.017122,117.858327 93.2063965,118.62221 93.2063965,121.248995 L93.2063965,126.0087 Z M90.2336087,120.912332 C90.2336087,117.454637 92.1704695,115.299205 95.6838685,115.299205 C99.1981607,115.299205 101.134766,117.454637 101.134766,120.912332 L101.134766,126.345108 C101.134766,129.803312 99.1981607,131.958617 95.6838685,131.958617 C92.1704695,131.958617 90.2336087,129.803312 90.2336087,126.345108 L90.2336087,120.912332 Z" id="Fill-12" fill="#FEFEFE" mask="url(#mask-2)"></path>
                    <path d="M107.800578,119.340471 L105.300267,119.340471 L105.300267,117.566472 C107.688042,117.095119 108.093659,116.286975 108.859345,115.299244 L110.638628,115.299244 L110.638628,131.733789 L107.800578,131.733789 L107.800578,119.340471 Z" id="Fill-13" fill="#FEFEFE" mask="url(#mask-2)"></path>
                    <polygon id="Fill-14" fill="#FEFEFE" mask="url(#mask-2)" points="115.480333 115.523384 125.751182 115.523384 125.751182 117.005617 121.358668 131.733827 118.115255 131.733827 122.620179 118.083015 115.480333 118.083015"></polygon>
                    <path d="M14.144251,4.54548421 C12.9427083,3.8378179 11.6047688,3.48398474 10.2122195,3.48398474 C5.81613255,3.48398474 2.89438193,6.64139241 2.89438193,10.9146082 C2.89438193,15.3784768 6.11635872,18.3452317 10.0756951,18.3452317 C11.4409395,18.3452317 13.2704946,17.9913986 14.2261657,17.4199491 L14.389995,20.0599617 C12.9427083,20.6587562 11.1678906,20.7405372 10.0483902,20.7405372 C4.01388234,20.7405372 -6.37964675e-05,16.8754632 -6.37964675e-05,10.8329544 C-6.37964675e-05,4.98097117 4.25962633,1.08867925 10.0756951,1.08867925 C11.550159,1.08867925 12.9974457,1.30642273 14.3626901,1.90521731 L14.144251,4.54548421 Z" id="Fill-15" fill="#FEFEFE" mask="url(#mask-2)"></path>
                    <path d="M25.7757761,12.139428 C25.7757761,10.0164291 24.5197512,8.27435405 22.3080553,8.27435405 C19.795878,8.27435405 18.7582922,10.3430443 18.567158,12.139428 L25.7757761,12.139428 Z M27.4413742,19.8422309 C26.4583983,20.1961912 25.3388978,20.7405499 23.0452873,20.7405499 C18.1029749,20.7405499 15.8365416,17.7464499 15.8365416,13.2282726 C15.8365416,9.11823723 18.4306336,6.20591816 22.3625375,6.20591816 C27.004496,6.20591816 28.5062649,9.58094213 28.5062649,14.0446835 L18.567158,14.0446835 C18.567158,16.7938221 20.7242442,18.6718597 23.1543792,18.6718597 C24.8474099,18.6718597 26.8133618,17.8008858 27.4413742,17.283745 L27.4413742,19.8422309 Z" id="Fill-16" fill="#FEFEFE" mask="url(#mask-2)"></path>
                    <polygon id="Fill-17" fill="#FEFEFE" mask="url(#mask-2)" points="31.572489 20.413833 34.1391484 20.413833 34.1391484 0 31.572489 0"></polygon>
                    <path d="M47.1582467,12.139428 C47.1582467,10.0164291 45.9022218,8.27435405 43.6905259,8.27435405 C41.1783486,8.27435405 40.1407628,10.3430443 39.9496286,12.139428 L47.1582467,12.139428 Z M48.8238448,19.8422309 C47.8408689,20.1961912 46.7213685,20.7405499 44.4277579,20.7405499 C39.4854455,20.7405499 37.2191398,17.7464499 37.2191398,13.2282726 C37.2191398,9.11823723 39.8131042,6.20591816 43.7451357,6.20591816 C48.3869666,6.20591816 49.8887355,9.58094213 49.8887355,14.0446835 L39.9496286,14.0446835 C39.9496286,16.7938221 42.1067148,18.6718597 44.5369774,18.6718597 C46.2298805,18.6718597 48.1958324,17.8008858 48.8238448,17.283745 L48.8238448,19.8422309 Z" id="Fill-18" fill="#FEFEFE" mask="url(#mask-2)"></path>
                    <path d="M59.4644832,8.27439221 C56.6793846,8.27439221 55.3413175,10.9146591 55.3413175,13.500363 C55.3413175,15.8138874 56.5428601,18.6718978 59.4371783,18.6718978 C62.1950996,18.6718978 63.3419049,15.596144 63.2872951,13.4187092 C63.3419049,10.9146591 62.2497093,8.27439221 59.4644832,8.27439221 L59.4644832,8.27439221 Z M52.774658,1.27186613e-05 L55.3413175,1.27186613e-05 L55.3413175,8.43769982 L55.3960548,8.43769982 C56.1878966,7.15858405 57.5804459,6.20582913 60.0105809,6.20582913 C64.0518319,6.20582913 66.0177839,9.49932648 66.0177839,13.2281836 C66.0177839,17.0388217 64.2429662,20.7405881 60.0378858,20.7405881 C57.553141,20.7405881 55.9693299,19.4884359 55.2867077,18.4541544 L55.2322255,18.4541544 L55.2322255,20.4138457 L52.774658,20.4138457 L52.774658,1.27186613e-05 Z" id="Fill-19" fill="#FEFEFE" mask="url(#mask-2)"></path>
                    <path d="M68.9662269,6.5324062 L71.3691847,6.5324062 L71.3691847,8.68262308 L71.4237945,8.68262308 C72.1062891,7.24007252 73.5808806,6.20591816 75.0554722,6.20591816 C75.820009,6.20591816 76.2022775,6.28744478 76.7482476,6.39644371 L76.7482476,8.68262308 C76.2841921,8.49209754 75.7652717,8.43766166 75.3283935,8.43766166 C73.0347829,8.43766166 71.5328864,10.6152237 71.5328864,14.0991194 L71.5328864,20.4139347 L68.9662269,20.4139347 L68.9662269,6.5324062 Z" id="Fill-20" fill="#FEFEFE" mask="url(#mask-2)"></path>
                    <path d="M86.7826409,13.7998111 C86.2365431,13.7998111 85.6903178,13.7453752 85.14422,13.7453752 C83.7516707,13.7453752 80.3112548,13.9631187 80.3112548,16.4127329 C80.3112548,17.8825014 81.731109,18.6719487 82.9052192,18.6719487 C85.4447014,18.6719487 86.7826409,17.0931813 86.7826409,15.0246182 L86.7826409,13.7998111 Z M79.1644495,7.51221371 C80.4477793,6.75011153 81.976853,6.20588001 83.7516707,6.20588001 C87.738312,6.20588001 89.3493004,8.16557134 89.3493004,11.9488643 L89.3493004,17.6919759 C89.3493004,19.2707433 89.4039101,20.0056275 89.4586475,20.4138966 L87.0556898,20.4138966 L87.0556898,18.6175128 L87.00108,18.6175128 C86.4003725,19.4612688 85.0351281,20.7405118 82.6867801,20.7405118 C79.6831148,20.7405118 77.5806384,19.4340509 77.5806384,16.4127329 C77.5806384,12.92871 81.4034503,11.8401198 84.0521521,11.8401198 C85.0624329,11.8401198 85.77236,11.8401198 86.7826409,11.8944285 C86.7826409,9.49925017 85.9087569,8.27444308 83.3420974,8.27444308 C81.8949383,8.27444308 80.3385597,8.81880179 79.3008464,9.68977571 L79.1644495,7.51221371 Z" id="Fill-21" fill="#FEFEFE" mask="url(#mask-2)"></path>
                    <path d="M100.402306,8.60105831 L96.7160188,8.60105831 L96.7160188,16.1949894 C96.7160188,17.8008476 97.6989948,18.6719487 98.8732326,18.6719487 C99.6652019,18.6719487 100.238605,18.4269873 100.620745,18.1818987 L100.620745,20.3594607 C100.04747,20.5227683 99.255501,20.7405118 98.4363544,20.7405118 C95.7877802,20.7405118 94.1493593,19.4883596 94.1493593,16.7121302 L94.1493593,8.60105831 L91.0092972,8.60105831 L91.0092972,6.53236804 L94.1493593,6.53236804 L94.1493593,3.32065169 L96.7160188,2.50398645 L96.7160188,6.53236804 L100.402306,6.53236804 L100.402306,8.60105831 Z" id="Fill-22" fill="#FEFEFE" mask="url(#mask-2)"></path>
                    <path d="M102.96316,20.4139602 L105.52982,20.4139602 L105.52982,6.53243164 L102.96316,6.53243164 L102.96316,20.4139602 Z M102.799203,3.42945984 L105.693649,3.42945984 L105.693649,0.544231518 L102.799203,0.544231518 L102.799203,3.42945984 Z" id="Fill-23" fill="#FEFEFE" mask="url(#mask-2)"></path>
                    <path d="M109.352504,6.5324062 L111.837377,6.5324062 L111.837377,8.73718614 L111.891859,8.73718614 C112.656523,7.1585459 114.513256,6.20591816 116.45203,6.20591816 C120.056275,6.20591816 121.667391,8.43766166 121.667391,12.166646 L121.667391,20.4139347 L119.100477,20.4139347 L119.100477,13.2282726 C119.100477,9.98921116 118.390677,8.41057092 116.151549,8.27435405 C113.229926,8.27435405 111.919164,10.6152237 111.919164,13.9903748 L111.919164,20.4139347 L109.352504,20.4139347 L109.352504,6.5324062 Z" id="Fill-24" fill="#FEFEFE" mask="url(#mask-2)"></path>
                    <path d="M135.180108,13.6364781 C135.180108,10.7512498 133.842296,8.27441765 131.111553,8.27441765 C128.517588,8.27441765 127.234386,11.0779922 127.234386,13.4459525 C127.234386,16.0590015 128.708722,18.3451809 131.111553,18.3451809 C133.51451,18.3451809 135.180108,16.2221819 135.180108,13.6364781 L135.180108,13.6364781 Z M137.746895,19.8150765 C137.746895,24.0339837 135.562377,26.4563799 130.565582,26.4563799 C129.090991,26.4563799 127.807661,26.2658544 125.56866,25.5037522 L125.841709,23.1357918 C127.807661,24.0339837 128.981899,24.3878169 130.865809,24.3878169 C133.56912,24.3878169 135.180108,22.564088 135.180108,19.624551 L135.180108,18.2636542 L135.125499,18.2636542 C134.033431,19.7062048 132.231181,20.4138711 130.456363,20.4138711 C126.469722,20.4138711 124.503642,17.1748096 124.503642,13.5820422 C124.503642,10.0163655 126.524331,6.20585457 130.729412,6.20585457 C133.186852,6.20585457 134.552096,7.10404643 135.316633,8.60103287 L135.371243,8.60103287 L135.371243,6.53246979 L137.746895,6.53246979 L137.746895,19.8150765 Z" id="Fill-25" fill="#FEFEFE" mask="url(#mask-2)"></path>
                    <path d="M3.35611524,49.8153461 L6.22325608,49.8153461 C10.9196968,49.8153461 13.5137888,47.5561303 13.5137888,42.656902 C13.5137888,38.2202513 10.4828186,35.6072024 6.55078715,35.6072024 L3.35611524,35.6072024 L3.35611524,49.8153461 Z M0.625626438,33.2120241 L6.25056097,33.2120241 C11.9028004,33.2120241 16.4081069,36.696047 16.4081069,42.547903 C16.4081069,48.9171542 12.5308128,52.2105244 6.25056097,52.2105244 L0.625626438,52.2105244 L0.625626438,33.2120241 Z" id="Fill-26" fill="#FEFEFE" mask="url(#mask-2)"></path>
                    <path d="M28.5309796,45.5964644 C27.9848819,45.5964644 27.4386565,45.5420285 26.8926863,45.5420285 C25.5000094,45.5420285 22.0595936,45.759772 22.0595936,48.2093862 C22.0595936,49.6791547 23.4794477,50.468602 24.6535579,50.468602 C27.1930401,50.468602 28.5309796,48.8898346 28.5309796,46.8212715 L28.5309796,45.5964644 Z M20.9127883,39.308867 C22.196118,38.5467648 23.7251917,38.0025333 25.5000094,38.0025333 C29.4866507,38.0025333 31.0976391,39.9622246 31.0976391,43.7455176 L31.0976391,49.4886291 C31.0976391,51.0673966 31.1522489,51.8022808 31.2068586,52.2105498 L28.8040285,52.2105498 L28.8040285,50.4141661 L28.7494187,50.4141661 C28.1487112,51.2579221 26.7834668,52.5371651 24.4351188,52.5371651 C21.4315811,52.5371651 19.3289772,51.2307042 19.3289772,48.2093862 C19.3289772,44.7253633 23.1517891,43.6367731 25.8004908,43.6367731 C26.8107717,43.6367731 27.5205712,43.6367731 28.5309796,43.6910818 C28.5309796,41.2959035 27.6572232,40.0710964 25.0904361,40.0710964 C23.6432771,40.0710964 22.0868984,40.6154551 21.0493127,41.486429 L20.9127883,39.308867 Z" id="Fill-27" fill="#FEFEFE" mask="url(#mask-2)"></path>
                    <path d="M35.4389377,38.3290595 L37.8417678,38.3290595 L37.8417678,40.4792764 L37.8963776,40.4792764 C38.5789998,39.0367258 40.0535913,38.0025714 41.5280553,38.0025714 C42.2925922,38.0025714 42.6748606,38.0840981 43.2209584,38.193097 L43.2209584,40.4792764 C42.7567753,40.2887508 42.2379824,40.2343149 41.8011042,40.2343149 C39.507366,40.2343149 38.0055971,42.411877 38.0055971,45.8957727 L38.0055971,52.210588 L35.4389377,52.210588 L35.4389377,38.3290595 Z" id="Fill-28" fill="#FEFEFE" mask="url(#mask-2)"></path>
                    <path d="M54.1427094,40.3977116 L50.456422,40.3977116 L50.456422,47.9916427 C50.456422,49.5975009 51.4395255,50.468602 52.6136357,50.468602 C53.4054775,50.468602 53.9788801,50.2236406 54.3611485,49.978552 L54.3611485,52.156114 C53.7877459,52.3194216 52.9959041,52.5371651 52.1766299,52.5371651 C49.5280558,52.5371651 47.8897625,51.2850129 47.8897625,48.5087835 L47.8897625,40.3977116 L44.7495728,40.3977116 L44.7495728,38.3290213 L47.8897625,38.3290213 L47.8897625,35.117305 L50.456422,34.3006397 L50.456422,38.3290213 L54.1427094,38.3290213 L54.1427094,40.3977116 Z" id="Fill-29" fill="#FEFEFE" mask="url(#mask-2)"></path>
                    <path d="M57.3369603,38.3290595 L59.7397904,38.3290595 L59.7397904,40.3433139 L59.7945278,40.3433139 C60.7775038,38.7373285 62.1700531,38.0025714 64.2179197,38.0025714 C65.8290357,38.0025714 67.4400241,38.8189823 68.177256,40.697147 C69.1329271,38.7101106 71.2355311,38.0025714 72.4914283,38.0025714 C76.0411914,38.0025714 77.3245211,40.2887508 77.3245211,43.3100688 L77.3245211,52.210588 L74.7578617,52.210588 L74.7578617,43.9360813 C74.7578617,42.2212242 74.3482883,40.0710073 72.2729892,40.0710073 C69.6518476,40.0710073 68.6141342,42.6296204 68.6141342,45.2154515 L68.6141342,52.210588 L66.0473472,52.210588 L66.0473472,43.9360813 C66.0473472,42.2212242 65.6379014,40.0710073 63.5626024,40.0710073 C60.9412055,40.0710073 59.9037474,42.6296204 59.9037474,45.2154515 L59.9037474,52.210588 L57.3369603,52.210588 L57.3369603,38.3290595 Z" id="Fill-30" fill="#FEFEFE" mask="url(#mask-2)"></path>
                    <path d="M87.8091133,50.4685511 C90.812651,50.4685511 92.1505905,47.7467576 92.1505905,45.2697983 C92.1505905,42.6295314 90.5396021,40.0710455 87.8091133,40.0710455 C85.0513196,40.0710455 83.4403312,42.6295314 83.4403312,45.2697983 C83.4403312,47.7467576 84.7781431,50.4685511 87.8091133,50.4685511 M87.8091133,38.0024824 C92.0414985,38.0024824 94.8812069,41.0508912 94.8812069,45.2697983 C94.8812069,49.243744 91.9868888,52.5372414 87.8091133,52.5372414 C83.6040329,52.5372414 80.7095872,49.243744 80.7095872,45.2697983 C80.7095872,41.0508912 83.5494232,38.0024824 87.8091133,38.0024824" id="Fill-31" fill="#FEFEFE" mask="url(#mask-2)"></path>
                    <path d="M110.63591,52.2105371 L108.151038,52.2105371 L108.151038,50.0058844 L108.096556,50.0058844 C107.332019,51.5845246 105.475159,52.5371523 103.536384,52.5371523 C99.9321391,52.5371523 98.3210231,50.3052817 98.3210231,46.5762974 L98.3210231,38.3290086 L100.88781,38.3290086 L100.88781,45.5146707 C100.88781,48.7537322 101.597737,50.3323724 103.836866,50.4685893 C106.758489,50.4685893 108.069123,48.1277197 108.069123,44.7525685 L108.069123,38.3290086 L110.63591,38.3290086 L110.63591,52.2105371 Z" id="Fill-32" fill="#FEFEFE" mask="url(#mask-2)"></path>
                    <path d="M122.403871,40.3977116 L118.717583,40.3977116 L118.717583,47.9916427 C118.717583,49.5975009 119.700559,50.468602 120.874797,50.468602 C121.666766,50.468602 122.240169,50.2236406 122.62231,49.978552 L122.62231,52.156114 C122.049035,52.3194216 121.257065,52.5371651 120.437919,52.5371651 C117.789345,52.5371651 116.150924,51.2850129 116.150924,48.5087835 L116.150924,40.3977116 L113.010861,40.3977116 L113.010861,38.3290213 L116.150924,38.3290213 L116.150924,35.117305 L118.717583,34.3006397 L118.717583,38.3290213 L122.403871,38.3290213 L122.403871,40.3977116 Z" id="Fill-33" fill="#FEFEFE" mask="url(#mask-2)"></path>
                    <path d="M125.625465,31.7967169 L128.192124,31.7967169 L128.192124,40.3160578 L128.246861,40.3160578 C129.175228,38.8462893 130.786216,38.0025333 132.724991,38.0025333 C136.329236,38.0025333 137.940352,40.234404 137.940352,43.9632611 L137.940352,52.2105498 L135.373437,52.2105498 L135.373437,45.0248878 C135.373437,41.7858263 134.663638,40.207186 132.424509,40.0710964 C129.502886,40.0710964 128.192124,42.4118388 128.192124,45.7869899 L128.192124,52.2105498 L125.625465,52.2105498 L125.625465,31.7967169 Z" id="Fill-34" fill="#FEFEFE" mask="url(#mask-2)"></path>
                    <polygon id="Fill-35" fill="#FEFEFE" mask="url(#mask-2)" points="1.1236089 65.0086901 11.8000753 65.0086901 11.8000753 67.4038684 3.8542253 67.4038684 3.8542253 72.9564543 11.0901482 72.9564543 11.0901482 75.3516326 3.8542253 75.3516326 3.8542253 81.6120121 11.8000753 81.6120121 11.8000753 84.0071904 1.1236089 84.0071904"></polygon>
                    <path d="M14.2435566,70.1257128 L16.728429,70.1257128 L16.728429,72.3304927 L16.7830388,72.3304927 C17.5475756,70.7518525 19.404308,69.7992247 21.3430827,69.7992247 C24.9473279,69.7992247 26.5583163,72.0309682 26.5583163,75.7599525 L26.5583163,84.0072413 L23.9916568,84.0072413 L23.9916568,76.8215792 C23.9916568,73.5825177 23.2817297,72.0038775 21.0427289,71.8676606 C18.1209783,71.8676606 16.8103437,74.2085302 16.8103437,77.5836814 L16.8103437,84.0072413 L14.2435566,84.0072413 L14.2435566,70.1257128 Z" id="Fill-36" fill="#FEFEFE" mask="url(#mask-2)"></path>
                    <path d="M39.4705809,77.2297846 C39.4705809,74.3445563 38.1326414,71.8677242 35.402025,71.8677242 C32.8080607,71.8677242 31.5247309,74.6712987 31.5247309,77.0392591 C31.5247309,79.6523081 32.9991949,81.9384874 35.402025,81.9384874 C37.8049828,81.9384874 39.4705809,79.8154885 39.4705809,77.2297846 L39.4705809,77.2297846 Z M42.0372404,83.4083831 C42.0372404,87.6272903 39.8528494,90.0496865 34.8559273,90.0496865 C33.3814633,90.0496865 32.0981336,89.8591609 29.8590052,89.0970588 L30.1321816,86.7290984 C32.0981336,87.6272903 33.2722438,87.9811234 35.156281,87.9811234 C37.8595925,87.9811234 39.4705809,86.1573946 39.4705809,83.2178576 L39.4705809,81.8569608 L39.4159712,81.8569608 C38.3237756,83.2995114 36.521653,84.0071777 34.7467077,84.0071777 C30.7600665,84.0071777 28.7941145,80.7681162 28.7941145,77.1753488 C28.7941145,73.6096721 30.8148038,69.7991611 35.0197566,69.7991611 C37.4771965,69.7991611 38.8425685,70.697353 39.6071054,72.1943394 L39.6617152,72.1943394 L39.6617152,70.1257764 L42.0372404,70.1257764 L42.0372404,83.4083831 Z" id="Fill-37" fill="#FEFEFE" mask="url(#mask-2)"></path>
                    <path d="M45.2888571,84.0072667 L47.8555165,84.0072667 L47.8555165,70.1257382 L45.2888571,70.1257382 L45.2888571,84.0072667 Z M45.1250277,67.0227664 L48.0194735,67.0227664 L48.0194735,64.1375381 L45.1250277,64.1375381 L45.1250277,67.0227664 Z" id="Fill-38" fill="#FEFEFE" mask="url(#mask-2)"></path>
                    <path d="M51.0775444,70.1257128 L53.5622892,70.1257128 L53.5622892,72.3304927 L53.616899,72.3304927 C54.3815634,70.7518525 56.2382958,69.7992247 58.1769429,69.7992247 C61.7813157,69.7992247 63.3923041,72.0309682 63.3923041,75.7599525 L63.3923041,84.0072413 L60.8256446,84.0072413 L60.8256446,76.8215792 C60.8256446,73.5825177 60.1157175,72.0038775 57.8765891,71.8676606 C54.9548385,71.8676606 53.6442038,74.2085302 53.6442038,77.5836814 L53.6442038,84.0072413 L51.0775444,84.0072413 L51.0775444,70.1257128 Z" id="Fill-39" fill="#FEFEFE" mask="url(#mask-2)"></path>
                    <path d="M75.5671709,75.7327346 C75.5671709,73.6097357 74.311146,71.8676606 72.0993225,71.8676606 C69.5872728,71.8676606 68.5496871,73.9363509 68.3585528,75.7327346 L75.5671709,75.7327346 Z M77.2328966,83.4355375 C76.2499207,83.7894978 75.1302927,84.3338565 72.8366821,84.3338565 C67.8943697,84.3338565 65.6279364,81.3397564 65.6279364,76.821452 C65.6279364,72.7115438 68.2220284,69.7992247 72.1540599,69.7992247 C76.7958908,69.7992247 78.2976597,73.1742487 78.2976597,77.6379901 L68.3585528,77.6379901 C68.3585528,80.3871287 70.515639,82.2651662 72.9459016,82.2651662 C74.6388047,82.2651662 76.6047566,81.3941923 77.2328966,80.8770515 L77.2328966,83.4355375 Z" id="Fill-40" fill="#FEFEFE" mask="url(#mask-2)"></path>
                    <path d="M89.6948476,75.7327346 C89.6948476,73.6097357 88.4386951,71.8676606 86.2269992,71.8676606 C83.7149495,71.8676606 82.6773637,73.9363509 82.4862295,75.7327346 L89.6948476,75.7327346 Z M91.3604457,83.4355375 C90.3774698,83.7894978 89.2578418,84.3338565 86.9643587,84.3338565 C82.0219188,84.3338565 79.7556131,81.3397564 79.7556131,76.821452 C79.7556131,72.7115438 82.3497051,69.7992247 86.281609,69.7992247 C90.9235675,69.7992247 92.4253364,73.1742487 92.4253364,77.6379901 L82.4862295,77.6379901 C82.4862295,80.3871287 84.6433157,82.2651662 87.0734507,82.2651662 C88.7664814,82.2651662 90.7324333,81.3941923 91.3604457,80.8770515 L91.3604457,83.4355375 Z" id="Fill-41" fill="#FEFEFE" mask="url(#mask-2)"></path>
                    <path d="M94.7105896,70.1257128 L97.1135474,70.1257128 L97.1135474,72.2759296 L97.1681571,72.2759296 C97.8506518,70.8335063 99.3252433,69.7992247 100.799835,69.7992247 C101.564372,69.7992247 101.94664,69.8807514 102.49261,69.9897503 L102.49261,72.2759296 C102.028555,72.0854041 101.509634,72.0309682 101.072756,72.0309682 C98.7791455,72.0309682 97.2772491,74.2085302 97.2772491,77.6924259 L97.2772491,84.0072413 L94.7105896,84.0072413 L94.7105896,70.1257128 Z" id="Fill-42" fill="#FEFEFE" mask="url(#mask-2)"></path>
                    <path d="M104.16062,84.0072667 L106.727279,84.0072667 L106.727279,70.1257382 L104.16062,70.1257382 L104.16062,84.0072667 Z M103.996663,67.0227664 L106.891109,67.0227664 L106.891109,64.1375381 L103.996663,64.1375381 L103.996663,67.0227664 Z" id="Fill-43" fill="#FEFEFE" mask="url(#mask-2)"></path>
                    <path d="M109.949231,70.1257128 L112.434103,70.1257128 L112.434103,72.3304927 L112.488585,72.3304927 C113.253122,70.7518525 115.109982,69.7992247 117.048757,69.7992247 C120.653002,69.7992247 122.264118,72.0309682 122.264118,75.7599525 L122.264118,84.0072413 L119.697203,84.0072413 L119.697203,76.8215792 C119.697203,73.5825177 118.987404,72.0038775 116.748275,71.8676606 C113.826652,71.8676606 112.51589,74.2085302 112.51589,77.5836814 L112.51589,84.0072413 L109.949231,84.0072413 L109.949231,70.1257128 Z" id="Fill-44" fill="#FEFEFE" mask="url(#mask-2)"></path>
                    <path d="M135.176115,77.2297846 C135.176115,74.3445563 133.838303,71.8677242 131.107559,71.8677242 C128.513594,71.8677242 127.230392,74.6712987 127.230392,77.0392591 C127.230392,79.6523081 128.704729,81.9384874 131.107559,81.9384874 C133.510517,81.9384874 135.176115,79.8154885 135.176115,77.2297846 L135.176115,77.2297846 Z M137.742902,83.4083831 C137.742902,87.6272903 135.558383,90.0496865 130.561589,90.0496865 C129.086997,90.0496865 127.803667,89.8591609 125.564667,89.0970588 L125.837715,86.7290984 C127.803667,87.6272903 128.977905,87.9811234 130.861815,87.9811234 C133.565126,87.9811234 135.176115,86.1573946 135.176115,83.2178576 L135.176115,81.8569608 L135.121505,81.8569608 C134.029437,83.2995114 132.227187,84.0071777 130.452369,84.0071777 C126.465728,84.0071777 124.499648,80.7681162 124.499648,77.1753488 C124.499648,73.6096721 126.520338,69.7991611 130.725418,69.7991611 C133.182858,69.7991611 134.548102,70.697353 135.312639,72.1943394 L135.367249,72.1943394 L135.367249,70.1257764 L137.742902,70.1257764 L137.742902,83.4083831 Z" id="Fill-45" fill="#FEFEFE" mask="url(#mask-2)"></path>
                    <path d="M37.7549281,100.492611 L99.7650944,100.492611" id="Stroke-46" stroke="#FEFEFE" stroke-width="0.985221675" mask="url(#mask-2)"></path>
                </g>
            </g>
        </g>
    </g>
</svg>