<?xml version="1.0" encoding="UTF-8"?>
<svg width="202px" height="273px" viewBox="0 0 202 273" version="1.1" xmlns="http://www.w3.org/2000/svg" xmlns:xlink="http://www.w3.org/1999/xlink">
    <!-- Generator: Sketch 41.2 (35397) - http://www.bohemiancoding.com/sketch -->
    <title>Thayer150-phone</title>
    <desc>Created with Sketch.</desc>
    <defs></defs>
    <g id="Page-1" stroke="none" stroke-width="1" fill="none" fill-rule="evenodd">
        <g id="Thayer150-phone">
            <path d="M201.142136,0 L201.091267,228.104249 L100.592629,272.26601 L0.135306491,228.104249 L0.0440210793,-1.42108547e-14 L201.142136,2.84217094e-14 Z" id="Combined-Shape" fill="#FFFFFF"></path>
            <polygon id="Rectangle-Copy-4" fill="#036936" points="9.86111111 47.635468 190.12521 47.635468 190.12521 218.447336 99.8583409 259.487014 9.86111111 218.447336"></polygon>
            <rect id="Rectangle-Copy" fill="#80B63A" x="9.86111111" y="0" width="180.264099" height="105.501448"></rect>
            <rect id="Rectangle-2" fill="#FFFFFF" x="0" y="104" width="202" height="52"></rect>
            <g id="words" transform="translate(40.583333, 193.221675)" fill="#FEFEFE">
                <path d="M3.26935587,-5.65952903 L0.768917129,-5.65952903 L0.768917129,-7.43352791 C3.15643613,-7.9048815 3.56192647,-8.71302524 4.32773927,-9.70075648 L6.10689515,-9.70075648 L6.10689515,6.73378893 L3.26935587,6.73378893 L3.26935587,-5.65952903 Z" id="Fill-1"></path>
                <path d="M16.7596931,-7.14167279 C15.5436048,-7.14167279 14.6877114,-6.19820249 14.6877114,-5.0532686 C14.6877114,-3.90833471 15.6109739,-3.01052441 16.7596931,-3.01052441 C17.9086675,-3.01052441 18.8321851,-3.90833471 18.8321851,-5.0532686 C18.8321851,-6.19820249 17.9762917,-7.14167279 16.7596931,-7.14167279 M16.7596931,-0.450893818 C15.2510342,-0.450893818 14.2822211,0.537346166 14.2822211,2.04132787 C14.2822211,3.43325816 14.9356245,4.39898611 16.7596931,4.39898611 C18.5846548,4.39898611 19.2376755,3.43325816 19.2376755,2.04132787 C19.2376755,0.537346166 18.2691175,-0.450893818 16.7596931,-0.450893818 M16.7596931,6.9586167 C13.6742407,6.9586167 11.3095609,5.34169329 11.3095609,2.13112162 C11.3095609,0.312480234 11.9401252,-1.1018349 13.6742407,-1.77541521 C12.3904006,-2.42635629 11.7144133,-3.88594987 11.7144133,-5.30039219 C11.7144133,-8.30886434 13.9447378,-9.70079463 16.7596931,-9.70079463 C19.5755416,-9.70079463 21.8052281,-8.30886434 21.8052281,-5.30039219 C21.8052281,-3.88594987 21.1298787,-2.42635629 19.845911,-1.77541521 C21.5802818,-1.1018349 22.210846,0.312480234 22.210846,2.13112162 C22.210846,5.34169329 19.845911,6.9586167 16.7596931,6.9586167" id="Fill-3"></path>
                <path d="M29.056207,1.00869975 C29.056207,3.63535769 29.8673153,4.39898611 31.5339342,4.39898611 C33.0882713,4.39898611 33.8766681,3.27630988 33.8766681,1.41289881 C33.8766681,-0.3836121 32.9078549,-1.21388631 31.5339342,-1.21388631 C30.5880878,-1.21388631 29.822275,-0.585330068 29.056207,0.110635079 L29.056207,1.00869975 Z M33.5838423,-5.23298329 C33.5386744,-6.33340186 32.6377407,-7.14167279 31.5339342,-7.14167279 C29.8673153,-7.14167279 29.056207,-6.37778999 29.056207,-3.75100487 L29.056207,-2.24689598 C30.0696777,-3.01052441 31.2640751,-3.50400847 32.5474049,-3.50400847 C35.3854545,-3.50400847 36.8493283,-1.30406162 36.8493283,1.30033866 C36.8493283,4.6233433 35.2280049,6.9586167 31.5339342,6.9586167 C28.02028,6.9586167 26.0832916,4.80331236 26.0832916,1.34510835 L26.0832916,-4.08766783 C26.0832916,-7.5453631 28.02028,-9.70079463 31.5339342,-9.70079463 C34.3495275,-9.70079463 36.3315561,-8.15191606 36.5567577,-5.23298329 L33.5838423,-5.23298329 Z" id="Fill-5"></path>
                <polygon id="Fill-7" points="40.1595356 -9.47661551 50.4302565 -9.47661551 50.4302565 -7.99438272 46.0377421 6.73382708 42.7947125 6.73382708 47.2995086 -6.91698492 40.1595356 -6.91698492"></polygon>
                <polygon id="Fill-9" points="52.6487148 0.744825688 62.9837426 0.744825688 62.9837426 -1.36151181 52.6487148 -1.36151181"></polygon>
                <path d="M65.1125541,6.7338398 L65.1125541,4.10718187 C71.5992513,-2.04483461 72.6354336,-3.21215335 72.6354336,-4.91861613 C72.6354336,-6.22075268 71.9146611,-7.14171094 70.4731161,-7.14171094 C68.9640745,-7.14171094 68.1532213,-6.22075268 68.1532213,-5.00866426 L68.1532213,-4.42475051 L65.1804336,-4.42475051 L65.1804336,-5.18812457 C65.1804336,-7.56829485 67.094838,-9.70083279 70.2481697,-9.70083279 C73.4240855,-9.70083279 75.6087317,-8.08454531 75.6087317,-4.98627941 C75.6087317,-1.23630931 71.2168553,1.65972987 68.8738662,4.17420921 L75.3608186,4.17420921 L75.3608186,6.7338398 L65.1125541,6.7338398 Z" id="Fill-11"></path>
                <path d="M82.2063965,1.00869975 C82.2063965,3.63535769 83.017122,4.39898611 84.6838685,4.39898611 C86.3507426,4.39898611 87.1618509,3.63535769 87.1618509,1.00869975 L87.1618509,-3.75100487 C87.1618509,-6.37778999 86.3507426,-7.14167279 84.6838685,-7.14167279 C83.017122,-7.14167279 82.2063965,-6.37778999 82.2063965,-3.75100487 L82.2063965,1.00869975 Z M79.2336087,-4.08766783 C79.2336087,-7.5453631 81.1704695,-9.70079463 84.6838685,-9.70079463 C88.1981607,-9.70079463 90.1347663,-7.5453631 90.1347663,-4.08766783 L90.1347663,1.34510835 C90.1347663,4.80331236 88.1981607,6.9586167 84.6838685,6.9586167 C81.1704695,6.9586167 79.2336087,4.80331236 79.2336087,1.34510835 L79.2336087,-4.08766783 Z" id="Fill-12"></path>
                <path d="M96.8005785,-5.65952903 L94.3002673,-5.65952903 L94.3002673,-7.43352791 C96.6880415,-7.9048815 97.0936595,-8.71302524 97.8593447,-9.70075648 L99.6386281,-9.70075648 L99.6386281,6.73378893 L96.8005785,6.73378893 L96.8005785,-5.65952903 Z" id="Fill-13"></path>
                <polygon id="Fill-14" points="104.480333 -9.47661551 114.751182 -9.47661551 114.751182 -7.99438272 110.358668 6.73382708 107.115255 6.73382708 111.620179 -6.91698492 104.480333 -6.91698492"></polygon>
            </g>
            <g id="thayer150" transform="translate(8.755471, 14.682648)">
                <path d="M180.089229,89.9656467 L0.954973906,89.9656467 C0.954973906,40.2787419 41.0530905,0 90.520682,0 C139.988274,0 180.089229,40.2787419 180.089229,89.9656467" id="Fill-1" fill="#FEFEFE"></path>
                <path d="M180.089229,89.9627953 C180.089229,75.1754843 176.536465,61.2193536 170.241415,48.9127523 C171.208028,53.058674 171.70198,57.4925862 171.70198,62.0719194 C171.70198,72.7760392 169.015052,82.7003038 163.854105,89.9627953 L180.089229,89.9627953 Z" id="Fill-3" fill="#036936"></path>
                <path d="M141.017908,24.0785669 C134.426203,24.0785669 129.084992,32.4687834 129.084992,62.0719194 C129.084992,75.1341391 130.125414,84.0575656 131.854246,89.9627953 L150.182989,89.9627953 C151.908982,84.0575656 152.950824,75.1341391 152.950824,62.0719194 C152.950824,32.4687834 147.611032,24.0785669 141.017908,24.0785669" id="Fill-5" fill="#036936"></path>
                <path d="M28.6225324,32.6097847 L19.0529217,35.7320572 C7.69486406,50.8130615 0.954122264,69.5965963 0.954122264,89.9626528 L28.6225324,89.9626528 L28.6225324,32.6097847 Z" id="Fill-7" fill="#036936"></path>
                <path d="M44.8768185,25.5383363 L45.6702644,25.5383363 L45.6702644,89.9626528 L53.0681895,89.9626528 C52.9674119,89.2997045 52.9106358,88.6239249 52.9106358,87.9353141 C52.9106358,83.2604594 55.9779643,79.1843967 61.092071,79.1843967 C66.2075971,79.1843967 69.2749256,83.7409187 69.2749256,87.9353141 C69.2749256,88.6110937 69.1869227,89.292576 69.0322078,89.9626528 L85.5384378,89.9626528 C86.3914986,87.131222 86.8911283,83.6653569 86.8911283,79.4253392 C86.8911283,61.2078055 78.0283799,56.5329508 70.2997341,56.5329508 C62.3439839,56.5329508 57.2298772,59.6495206 57.2298772,59.6495206 L57.2298772,24.7727379 L98.1427307,24.7727379 L99.847433,15.5442126 L100.870822,15.5442126 L99.3918048,38.6761179 L59.1616838,38.7958763 L59.1616838,56.892226 C61.6612514,55.9341588 66.4347015,54.6153907 73.7077192,54.6153907 C92.9150719,54.6153907 105.642853,62.5265736 105.642853,79.4253392 C105.642853,83.5099561 104.911861,87.0014837 103.550654,89.9626528 L118.183273,89.9626528 C113.019487,82.7001612 110.332558,72.7758966 110.332558,62.0717768 C110.332558,40.6179148 121.129952,22.2820483 141.018618,22.2820483 C144.977331,22.2820483 148.569838,23.0177071 151.791882,24.3493064 C135.769668,9.25119384 114.22314,-0.000142569524 90.5205401,-0.000142569524 C62.3638555,-0.000142569524 37.2489502,13.0520974 20.8278844,33.4566476 L44.8768185,25.5383363 Z" id="Fill-9" fill="#036936"></path>
                <path d="M30.9114606,98.7904151 C30.761004,98.7904151 30.5452548,98.8360374 30.150661,98.9187277 C30.0030431,98.9486673 29.8312955,98.9857354 29.6070299,99.0285062 C28.937072,99.118325 27.9264575,99.2537661 26.4942805,99.2537661 L8.27341246,99.2537661 C6.82988026,99.2537661 5.07407955,99.165373 3.68732344,99.0228034 C3.00884912,98.968627 2.5787702,98.7790096 2.26508228,98.6407171 C2.04649432,98.5451955 1.87332723,98.468208 1.69448253,98.468208 C1.24453199,98.468208 1.08981713,98.968627 0.969167929,99.4804516 C0.896778409,99.782699 -0.000283880473,104.062636 -0.000283880473,104.838214 C-0.000283880473,105.136185 -0.000283880473,105.753511 0.591606902,105.753511 C1.03729924,105.753511 1.18775589,105.387107 1.27008123,105.066326 C1.32969613,104.818255 1.50996023,104.285045 2.02662269,103.505189 C2.63412689,102.609853 3.56241604,102.338971 6.34728346,102.243449 L13.0184745,102.062386 L13.0184745,120.828812 C13.0184745,125.063127 13.0184745,128.721461 12.7899508,130.653278 C12.6565269,131.967769 12.4010345,132.877363 11.594814,133.039892 C11.2371246,133.118305 10.6807189,133.220955 9.97527588,133.220955 C9.74959091,133.220955 9.06260017,133.220955 9.06260017,133.766996 C9.06260017,134.193279 9.43306418,134.408559 10.1597982,134.408559 C11.2087365,134.408559 12.5841374,134.364363 13.7977264,134.324443 C14.713241,134.295929 15.5052675,134.270267 15.9580568,134.270267 C16.4633641,134.270267 17.2397771,134.291652 18.1368394,134.317315 C19.5633388,134.35866 21.3375918,134.408559 23.179976,134.408559 C24.1309756,134.408559 24.2331726,133.959465 24.2331726,133.766996 C24.2331726,133.563122 24.1153622,133.220955 23.3190774,133.220955 C22.6306673,133.220955 21.631408,133.125434 20.9955158,133.03704 C19.8060566,132.877363 19.5008851,132.091805 19.3532673,130.696049 C19.1247435,128.721461 19.1247435,125.063127 19.1247435,120.828812 L19.1247435,102.062386 L24.7413186,102.196401 C29.1613375,102.297625 29.932073,103.758963 29.9973655,104.622934 L30.0427864,105.126205 C30.0839491,105.744956 30.1605968,106.218287 30.7269383,106.218287 C31.2294068,106.218287 31.2890217,105.610941 31.3188291,105.301565 C31.3188291,104.671408 31.3557336,103.500912 31.392638,102.367484 C31.4252843,101.356667 31.4565112,100.401451 31.4565112,99.9395255 C31.4565112,99.3749502 31.4565112,98.7904151 30.9114606,98.7904151" id="Fill-11" fill="#0F223D"></path>
                <path d="M99.1482354,133.221953 C98.7238341,133.221953 98.2923358,133.182034 97.6649599,133.085086 C96.892805,132.93824 95.8183174,132.339448 94.3393002,128.983361 C93.1470022,126.224641 91.0590613,121.337358 89.0619622,116.668206 C86.7440782,111.243435 84.5539403,106.119487 84.0330197,104.947565 C83.621393,104.076465 83.395708,103.596006 82.6774904,103.596006 C82.1239235,103.596006 81.7591371,104.213332 81.317703,105.275475 L70.734639,129.817393 C69.8517707,131.937402 69.1761352,132.925409 67.5395643,133.17348 C67.3522032,133.17348 67.1407122,133.184885 66.9306407,133.197716 C66.882381,133.200568 66.8397989,133.200568 66.7929586,133.203419 C66.3217171,133.183459 65.8178292,133.144966 65.4459458,133.083661 C64.3757164,132.923983 64.1301598,132.37509 63.9868002,131.207446 C63.8022779,129.505166 63.8022779,126.405704 63.8022779,122.815804 L63.8022779,115.885499 C63.8022779,109.897579 63.8022779,108.819753 63.8959584,107.576547 C63.9853808,106.216434 64.2820359,105.77732 65.2230996,105.614791 C65.7355039,105.520695 66.0832575,105.479349 66.3855902,105.479349 C67.2102629,105.479349 67.2996853,105.063046 67.2996853,104.884835 C67.2996853,104.335942 66.5885647,104.335942 66.2479081,104.335942 C65.3707175,104.335942 64.1486121,104.364456 63.0712857,104.391544 C62.2281607,104.411504 61.4730386,104.428612 61.0486373,104.428612 C60.6143002,104.428612 59.8747916,104.412929 59.0061173,104.394395 C57.7783343,104.367307 56.2496379,104.335942 54.9750146,104.335942 C54.6343581,104.335942 53.9246569,104.335942 53.9246569,104.884835 C53.9246569,105.107243 54.0382091,105.479349 54.7919117,105.479349 C55.304316,105.479349 55.9969843,105.520695 56.3092528,105.610513 C57.5384553,105.96266 57.840788,106.33049 57.9273715,107.57227 C57.9798894,108.972303 58.0182133,110.497797 58.0182133,116.20628 L58.0182133,117.037461 C58.0182133,117.137259 57.9912446,117.137259 57.9671148,117.137259 L42.6900872,117.137259 C42.6063425,117.137259 42.5935679,117.130131 42.5935679,117.037461 L42.5935679,116.20628 C42.5935679,110.23832 42.5935679,108.819753 42.6829902,107.576547 C42.773832,106.216434 43.0804229,105.77732 44.0598105,105.613365 C44.5125999,105.52212 44.8674504,105.479349 45.1768802,105.479349 C45.9305828,105.479349 46.0895559,105.155717 46.0895559,104.884835 C46.0895559,104.335942 45.3855323,104.335942 45.0860384,104.335942 C44.1747821,104.335942 42.8930618,104.365881 41.7617981,104.391544 C40.8931238,104.411504 40.120969,104.428612 39.6994065,104.428612 C39.2409395,104.428612 38.5127861,104.412929 37.6611447,104.394395 C36.4872989,104.367307 35.0295727,104.335942 33.7648852,104.335942 C33.4767465,104.335942 32.7116887,104.335942 32.7116887,104.884835 C32.7116887,105.256941 33.0367318,105.479349 33.5832017,105.479349 C34.2460626,105.479349 34.8734384,105.5321 35.1459637,105.610513 C36.3751661,105.964086 36.6774988,106.33049 36.762663,107.57227 C36.8095033,108.816902 36.8095033,109.894728 36.8095033,115.885499 L36.8095033,122.815804 C36.8095033,126.405704 36.8095033,129.505166 36.6264004,131.160398 C36.4929765,132.285271 36.2843244,132.926834 35.5618486,133.087938 C35.199901,133.177757 34.7471116,133.221953 34.1807701,133.221953 C33.39726,133.221953 33.3575167,133.713818 33.3575167,133.812191 C33.3575167,134.036025 33.4824241,134.408132 34.3184521,134.408132 C35.2382249,134.408132 36.4872989,134.363935 37.5887552,134.325441 C38.4120085,134.295502 39.1231291,134.269839 39.5148842,134.269839 C39.9719317,134.269839 40.7086015,134.29265 41.560243,134.318313 C42.8774483,134.358232 44.5154387,134.408132 46.0966529,134.408132 C47.0050704,134.408132 47.1015898,133.991829 47.1015898,133.812191 C47.1015898,133.528478 46.8446779,133.221953 46.2783364,133.221953 C45.6892844,133.221953 44.7737699,133.17348 44.2358164,133.083661 C43.2053303,132.925409 42.9668707,132.37509 42.823511,131.207446 C42.6191171,129.316974 42.5935679,125.779824 42.5935679,122.907048 L42.5978261,119.870317 C42.6020843,119.86604 42.6262141,119.851783 42.6900872,119.851783 L57.9628566,119.851783 C57.9813088,119.854635 58.0182133,119.880297 58.0182133,119.903108 L58.0182133,122.907048 C58.0182133,126.448475 58.0182133,129.505166 57.8351104,131.160398 C57.7016866,132.285271 57.4944538,132.926834 56.7733974,133.087938 C56.4057722,133.179182 55.9515634,133.221953 55.3440592,133.221953 C54.7791371,133.221953 54.5208059,133.528478 54.5208059,133.812191 C54.5208059,134.036025 54.6570685,134.408132 55.5740024,134.408132 C56.4611289,134.408132 57.7499462,134.365361 58.8883069,134.325441 C59.75982,134.295502 60.514942,134.269839 60.9123747,134.269839 C61.343873,134.269839 62.0365414,134.29265 62.8385037,134.316887 C63.8860226,134.349678 65.1450325,134.388172 66.4395275,134.402429 C66.5034006,134.40528 66.5701125,134.408132 66.6197916,134.408132 C66.7163109,134.408132 66.8099915,134.406706 66.9050914,134.40528 C67.0399347,134.406706 67.1733585,134.408132 67.3082017,134.408132 C67.3337509,134.408132 67.3436868,134.401003 67.3678166,134.401003 C68.5842444,134.383895 69.7509932,134.333995 70.4990182,134.301204 C70.8978703,134.28267 71.1860089,134.269839 71.3123358,134.269839 C71.9468086,134.269839 72.7473515,134.305482 73.5209258,134.338273 C74.3186299,134.372489 75.1433027,134.408132 75.8203576,134.408132 C76.0460426,134.408132 76.6421916,134.408132 76.6421916,133.812191 C76.6421916,133.414422 76.3881186,133.221953 75.8671979,133.221953 L75.2696295,133.221953 C73.9467465,133.221953 73.8346137,132.740068 73.8346137,132.289548 C73.8346137,131.903185 73.990748,130.962226 74.4194075,129.95426 L76.5825767,124.637842 C76.6492886,124.473887 76.6492886,124.473887 76.7869706,124.473887 L86.3097411,124.473887 C86.4516813,124.473887 86.5056186,124.496698 86.5609753,124.636416 L89.6893381,132.586093 C89.75605,132.751474 89.7517918,132.915429 89.6794023,133.046593 C89.625465,133.142114 89.5403008,133.209122 89.4679113,133.221953 C89.1584816,133.25617 88.803631,133.353117 88.803631,133.812191 C88.803631,134.234197 89.2947442,134.264136 89.9746379,134.305482 L90.1719349,134.316887 C93.5770811,134.408132 96.5308574,134.408132 97.9502598,134.408132 C99.3497905,134.408132 99.8778082,134.356807 99.8778082,133.812191 C99.8778082,133.635405 99.8068381,133.221953 99.1482354,133.221953 L99.1482354,133.221953 Z M77.617321,121.97892 C77.617321,121.97892 77.617321,121.961812 77.6428703,121.911913 L81.5547432,112.104555 L81.578873,112.030419 C81.5831312,112.016162 81.5902282,111.997628 81.5959058,111.976243 C81.600164,111.987648 81.6030028,111.997628 81.6058416,112.006182 L85.4481638,121.946129 L85.4368086,121.946129 L77.617321,121.97892 Z" id="Fill-14" fill="#0F223D"></path>
                <path d="M146.820141,127.859201 C146.382965,127.859201 146.269413,128.209922 146.182829,128.607691 C145.908885,130.210172 145.463192,130.964365 144.539161,131.386371 C143.406478,131.881087 141.437767,131.881087 140.79052,131.881087 C136.618896,131.881087 135.579894,131.270889 135.49473,128.77022 C135.462083,127.958999 135.476277,126.069953 135.487633,124.551588 C135.491891,123.918579 135.49473,123.351152 135.49473,122.956235 L135.49473,119.811151 C135.49473,119.610128 135.534473,119.57306 135.547247,119.57306 C136.570637,119.57306 141.14537,119.66573 141.877782,119.756974 C143.406478,119.898118 143.791136,120.512593 143.974239,121.138473 C144.031015,121.4507 144.052306,121.761502 144.072178,122.062324 C144.083533,122.237684 144.094888,122.404491 144.111921,122.538506 C144.111921,122.852159 144.314896,123.040351 144.655552,123.040351 C144.925239,123.040351 145.248863,122.857862 145.248863,121.98391 C145.248863,121.700197 145.338285,120.144764 145.430546,119.36776 C145.512871,118.653486 145.576745,118.113148 145.626424,117.701122 C145.715846,116.952632 145.75275,116.64183 145.75275,116.483578 C145.75275,116.151391 145.534162,115.890489 145.253121,115.890489 C145.058663,115.890489 144.9224,116.02593 144.752072,116.198439 C144.679682,116.269724 144.597357,116.35384 144.490902,116.445084 C144.13889,116.757312 143.659132,116.902733 142.658453,116.99968 C142.080757,117.058133 139.504541,117.090924 135.591249,117.090924 C135.542989,117.090924 135.49473,117.090924 135.49473,116.855685 L135.49473,107.148126 C135.49473,106.957083 135.557183,106.957083 135.591249,106.957083 C136.425858,106.957083 141.237632,107.051178 141.924622,107.142423 C143.916044,107.323486 144.16302,107.855271 144.451158,108.478299 C144.655552,108.884623 144.70949,109.519057 144.70949,109.829858 C144.70949,110.052267 144.70949,110.515618 145.2077,110.515618 C145.650553,110.515618 145.77688,109.992388 145.840753,109.727208 C145.903207,109.414981 145.962822,108.585227 146.011082,107.919427 C146.035211,107.570132 146.056503,107.267884 146.074955,107.112483 C146.138828,105.883534 146.263735,105.296148 146.338964,104.944001 C146.375868,104.777195 146.398578,104.66599 146.398578,104.561915 C146.398578,104.067198 146.080632,104.013022 145.94437,104.013022 C145.808107,104.013022 145.669006,104.065773 145.535582,104.115672 C145.44616,104.148463 145.356737,104.184105 145.272992,104.199788 C145.193506,104.212619 145.091309,104.229728 144.973499,104.249687 C144.618648,104.310992 144.130374,104.395108 143.586742,104.429325 C142.990593,104.464967 137.471957,104.445008 134.502567,104.435028 C133.571439,104.432176 132.854641,104.429325 132.555147,104.429325 C132.066873,104.429325 130.902963,104.412217 129.564467,104.393683 C127.705049,104.365169 125.600076,104.335229 124.37939,104.335229 L124.366615,104.335229 L124.362357,104.335229 C123.980538,104.335229 123.153026,104.35804 122.302804,104.380851 C121.408581,104.403662 120.48313,104.429325 120.037438,104.429325 C119.459741,104.429325 118.833785,104.40794 118.172343,104.383703 C117.482514,104.360892 116.769974,104.335229 116.080144,104.335229 C115.843104,104.335229 115.21147,104.335229 115.21147,104.884122 C115.21147,105.314682 115.628774,105.411629 115.963753,105.490042 L116.092919,105.521407 C116.747263,105.652571 116.823911,105.986184 116.823911,106.224275 C116.823911,106.733248 116.628033,107.406177 116.243375,108.224526 C115.862976,108.990124 113.671418,112.773919 112.073171,115.538342 C111.306694,116.859962 110.673641,117.95347 110.369888,118.488106 C109.827677,117.584215 108.413952,115.14485 107.04139,112.776771 C105.563792,110.230479 104.1671,107.823905 103.81225,107.243647 C103.411978,106.556462 103.328233,106.184356 103.328233,105.993313 C103.328233,105.917751 103.328233,105.685362 103.752635,105.564178 C103.867606,105.531387 103.971223,105.504299 104.062064,105.480062 C104.492143,105.368858 104.800154,105.287593 104.800154,104.884122 C104.800154,104.633199 104.66673,104.335229 104.026579,104.335229 C102.935059,104.335229 101.820828,104.36802 100.923766,104.395108 C100.304906,104.413642 99.7797275,104.429325 99.4248769,104.429325 C98.6498832,104.429325 97.2759017,104.396534 96.1687679,104.370871 C95.3540309,104.352337 94.6542656,104.335229 94.3647075,104.335229 C94.1006987,104.335229 93.4037721,104.335229 93.4037721,104.884122 C93.4037721,105.240546 93.7160406,105.480062 94.1801852,105.480062 C94.6173611,105.480062 95.2674474,105.673957 95.7997233,105.966224 C96.5122633,106.344034 97.301451,107.183768 98.3603251,108.6836 C99.7839857,110.760837 105.3083,119.416233 105.56947,119.980809 C106.145747,121.186947 106.47221,121.969653 106.47221,124.016952 L106.47221,127.25328 C106.47221,127.86918 106.47221,129.507304 106.333108,131.166813 C106.238008,132.36012 105.908707,132.934676 105.225974,133.087225 C104.878221,133.174192 104.385688,133.22124 103.842057,133.22124 C103.277135,133.22124 103.021642,133.527765 103.021642,133.812904 C103.021642,134.408844 103.758312,134.408844 104.07342,134.408844 C104.910867,134.408844 106.120198,134.366074 107.189008,134.329005 C108.052004,134.299066 108.865322,134.270552 109.316692,134.270552 C109.753868,134.270552 110.46215,134.291937 111.281145,134.3176 C112.554349,134.358945 114.139821,134.408844 115.665679,134.408844 C116.581193,134.408844 116.718875,134.035312 116.718875,133.812904 C116.718875,133.526339 116.415123,133.22124 115.85162,133.22124 C115.30515,133.22124 114.442154,133.174192 113.850263,133.084374 C112.868037,132.931824 112.446474,132.394337 112.348535,131.171091 C112.254855,129.510156 112.254855,127.870606 112.254855,127.25328 L112.252016,123.650548 C112.2435,122.534229 112.234983,121.477789 112.747387,120.253116 C113.464186,118.630675 119.212765,109.343696 120.586747,107.722681 C121.48097,106.642004 121.817368,106.316945 122.642041,105.923454 C123.187092,105.672531 123.898212,105.482914 124.305581,105.480062 C125.284968,105.485765 127.785955,105.535664 128.042867,105.611226 C129.273489,105.961947 129.575822,106.329777 129.663825,107.571557 C129.709246,108.816189 129.709246,109.89544 129.709246,115.884786 L129.709246,122.816516 C129.709246,126.404991 129.709246,129.505879 129.526143,131.159685 C129.394138,132.285984 129.185486,132.926121 128.46301,133.087225 C128.101063,133.177044 127.646854,133.22124 127.079093,133.22124 C126.298422,133.22124 126.258678,133.713105 126.258678,133.812904 C126.258678,134.035312 126.383586,134.408844 127.216775,134.408844 C128.025834,134.408844 128.971156,134.366074 130.027192,134.316174 C130.60063,134.316174 131.141423,134.300492 131.584276,134.286235 C131.885189,134.27768 132.137843,134.270552 132.323785,134.270552 C133.235041,134.270552 134.312367,134.296215 135.677832,134.330431 L137.007813,134.363222 C138.999234,134.454467 141.442025,134.500089 144.472449,134.500089 C145.982694,134.500089 146.493678,134.500089 146.803108,133.355256 C147.038729,132.554015 147.363772,129.865154 147.363772,128.962689 C147.363772,128.660441 147.363772,127.859201 146.820141,127.859201" id="Fill-16" fill="#0F223D"></path>
                <path d="M161.262276,107.242934 C161.262276,106.977755 161.317633,106.919302 161.4908,106.860848 C161.855586,106.779584 162.758326,106.728259 163.84275,106.728259 C166.606326,106.728259 169.831208,108.508952 169.831208,113.525973 C169.831208,116.728085 168.447291,118.380466 167.283381,119.204518 C166.617681,119.696382 166.079728,119.816141 164.533999,119.816141 C163.827136,119.816141 162.494317,119.769093 161.530543,119.468271 C161.331827,119.367047 161.262276,119.300039 161.262276,118.933635 L161.262276,107.242934 Z M183.674639,133.221953 C183.353854,133.221953 183.142363,133.221953 182.74777,133.130709 L182.629959,133.106472 C181.969937,132.971031 180.597375,132.69302 178.508015,130.59012 C176.200066,128.273365 173.544365,124.988563 170.181801,120.82981 L169.753141,120.300877 C173.635206,117.142962 175.293068,114.529663 175.293068,111.584176 C175.293068,108.78126 173.450684,106.773881 172.360583,106.029668 C170.095217,104.528411 167.012275,104.334516 164.579419,104.334516 C163.973335,104.334516 162.788134,104.357327 161.573125,104.380138 C160.299921,104.404375 158.984135,104.428612 158.277273,104.428612 C157.960746,104.428612 157.384469,104.415781 156.676187,104.398672 C155.509438,104.370159 154.060229,104.334516 152.755798,104.334516 C152.426496,104.334516 151.6586,104.334516 151.6586,104.884835 C151.6586,105.024553 151.721053,105.479349 152.525855,105.479349 C153.188715,105.479349 153.816091,105.5321 154.087197,105.610513 C155.319238,105.964086 155.621571,106.331915 155.708155,107.570844 C155.752156,108.816902 155.752156,109.894728 155.752156,115.885499 L155.752156,122.815804 C155.752156,126.405704 155.752156,129.505166 155.569053,131.160398 C155.435629,132.285271 155.226977,132.926834 154.505921,133.086512 C154.142554,133.177757 153.689765,133.221953 153.123423,133.221953 C152.341332,133.221953 152.301589,133.713818 152.301589,133.812191 C152.301589,134.034599 152.425077,134.408132 153.261105,134.408132 C154.214943,134.408132 155.515116,134.359658 156.559796,134.321164 C157.28653,134.294076 157.913906,134.269839 158.229013,134.269839 C158.430568,134.269839 158.940134,134.285522 159.618608,134.305482 C160.952846,134.346827 162.971237,134.408132 164.533999,134.408132 C165.440997,134.408132 165.540355,133.991829 165.540355,133.812191 C165.540355,133.528478 165.279185,133.221953 164.856203,133.221953 C164.345218,133.221953 163.48648,133.17348 162.903105,133.083661 C161.818682,132.922557 161.63274,132.345151 161.487961,131.161824 C161.330407,129.717594 161.262276,127.222628 161.262276,122.815804 L161.262276,122.261208 C161.262276,122.15143 161.296342,122.115787 161.401378,122.115787 L165.040725,122.208457 C165.286282,122.208457 165.463707,122.2441 165.641132,122.425163 C165.862559,122.687491 166.329543,123.363271 166.921433,124.220113 C167.653845,125.280831 168.565101,126.60245 169.453647,127.774372 C171.863792,131.034937 173.314422,132.738642 175.033318,133.602614 C176.170259,134.197129 177.348363,134.408132 179.532823,134.408132 L183.399275,134.408132 C183.685995,134.408132 184.357372,134.408132 184.357372,133.812191 C184.357372,133.528478 184.097621,133.221953 183.674639,133.221953 L183.674639,133.221953 Z" id="Fill-19" fill="#0F223D"></path>
            </g>
        </g>
    </g>
</svg>